<?xml version="1.0" encoding="UTF-8" standalone="no"?>
<!-- Created with Inkscape (http://www.inkscape.org/) -->

<svg
   xmlns:osb="http://www.openswatchbook.org/uri/2009/osb"
   xmlns:dc="http://purl.org/dc/elements/1.1/"
   xmlns:cc="http://creativecommons.org/ns#"
   xmlns:rdf="http://www.w3.org/1999/02/22-rdf-syntax-ns#"
   xmlns:svg="http://www.w3.org/2000/svg"
   xmlns="http://www.w3.org/2000/svg"
   xmlns:sodipodi="http://sodipodi.sourceforge.net/DTD/sodipodi-0.dtd"
   xmlns:inkscape="http://www.inkscape.org/namespaces/inkscape"
   width="300px"
   height="300px"
   viewBox="0 0 300 300"
   version="1.1"
   id="SVGRoot"
   inkscape:version="0.92.4 5da689c313, 2019-01-14"
   sodipodi:docname="impressionyang_logo.svg">
  <defs
     id="defs74">
    <inkscape:path-effect
       effect="bspline"
       id="path-effect6120"
       is_visible="true"
       weight="33.333333"
       steps="2"
       helper_size="0"
       apply_no_weight="true"
       apply_with_weight="true"
       only_selected="false" />
    <inkscape:path-effect
       effect="bspline"
       id="path-effect6116"
       is_visible="true"
       weight="33.333333"
       steps="2"
       helper_size="0"
       apply_no_weight="true"
       apply_with_weight="true"
       only_selected="false" />
    <inkscape:path-effect
       effect="bspline"
       id="path-effect6112"
       is_visible="true"
       weight="33.333333"
       steps="2"
       helper_size="0"
       apply_no_weight="true"
       apply_with_weight="true"
       only_selected="false" />
    <linearGradient
       id="linearGradient6043"
       osb:paint="solid">
      <stop
         style="stop-color:#000000;stop-opacity:1;"
         offset="0"
         id="stop6041" />
    </linearGradient>
    <linearGradient
       id="linearGradient4603"
       osb:paint="solid">
      <stop
         style="stop-color:#000000;stop-opacity:1;"
         offset="0"
         id="stop4601" />
    </linearGradient>
  </defs>
  <sodipodi:namedview
     id="base"
     pagecolor="#ffffff"
     bordercolor="#666666"
     borderopacity="1.0"
     inkscape:pageopacity="0.0"
     inkscape:pageshadow="2"
     inkscape:zoom="2.8284271"
     inkscape:cx="174.90295"
     inkscape:cy="141.40585"
     inkscape:document-units="px"
     inkscape:current-layer="g883"
     showgrid="true"
     inkscape:window-width="448"
     inkscape:window-height="404"
     inkscape:window-x="715"
     inkscape:window-y="128"
     inkscape:window-maximized="0"
     inkscape:object-paths="true"
     inkscape:snap-smooth-nodes="true"
     showguides="false">
    <inkscape:grid
       type="xygrid"
       id="grid6142" />
  </sodipodi:namedview>
  <metadata
     id="metadata77">
    <rdf:RDF>
      <cc:Work
         rdf:about="">
        <dc:format>image/svg+xml</dc:format>
        <dc:type
           rdf:resource="http://purl.org/dc/dcmitype/StillImage" />
        <dc:title />
      </cc:Work>
    </rdf:RDF>
  </metadata>
  <g
     inkscape:groupmode="layer"
     id="layer3"
     inkscape:label="ring_2"
     style="display:inline">
    <ellipse
       style="display:inline;opacity:1;fill:#0089b0;fill-opacity:1;stroke:none;stroke-width:0.56116867;stroke-miterlimit:4;stroke-dasharray:none;stroke-opacity:1"
       id="path6124-3"
       cx="150"
       cy="150"
       rx="49.719414"
       ry="49.719418" />
  </g>
  <g
     inkscape:groupmode="layer"
     id="layer2"
     inkscape:label="ring_1"
     style="display:inline">
    <circle
       style="display:inline;opacity:1;fill:#fffcff;fill-opacity:1;stroke:none;stroke-width:0.50505179;stroke-miterlimit:4;stroke-dasharray:none;stroke-opacity:1"
       id="path6124"
       cx="150"
       cy="150"
       r="44.747475" />
  </g>
  <g
     inkscape:label="main"
     inkscape:groupmode="layer"
     id="layer1"
     style="display:inline">
    <path
       style="opacity:1;fill:#0089b0;fill-opacity:1;stroke:none;stroke-width:0.5;stroke-linecap:butt;stroke-linejoin:miter;stroke-miterlimit:4;stroke-dasharray:none;stroke-opacity:1"
       d="m 150.22241,150.1856 c 0.23016,0.19657 0.69038,0.58963 1.13023,1.19388 0.43985,0.60426 0.86189,1.4246 1.11451,2.31634 0.25262,0.89174 0.33676,1.85672 0.22113,2.77243 -0.11564,0.91571 -0.43102,1.78037 -0.73346,2.35809 -0.30244,0.57772 -0.5914,0.86668 -0.92094,0.98816 -0.32953,0.12148 -0.69654,0.0743 -1.38204,-0.36995 -0.68551,-0.44425 -1.68281,-1.28146 -2.71678,-2.34701 -1.03396,-1.06554 -2.10189,-2.35706 -3.09791,-3.88096 -0.99602,-1.5239 -1.92007,-3.28009 -2.58289,-5.02307 -0.66283,-1.74298 -1.0647,-3.47326 -1.29527,-5.11181 -0.23058,-1.63856 -0.29012,-3.18683 -0.1506,-4.91624 0.13952,-1.7294 0.47827,-3.64279 1.01394,-5.40388 0.53567,-1.76108 1.26899,-3.3729 2.13928,-4.88462 0.87029,-1.51171 1.87923,-2.92646 3.13433,-4.30045 1.2551,-1.37399 2.75929,-2.71064 4.43653,-3.85411 1.67725,-1.14348 3.53123,-2.09653 5.37029,-2.80306 1.83906,-0.70654 3.66687,-1.16815 5.66941,-1.36518 2.00254,-0.19703 4.18401,-0.13002 6.35439,-0.3663 2.17039,-0.23628 4.33281,-0.77595 6.43978,-1.51987 2.10697,-0.74393 4.16165,-1.6931 5.99151,-2.73084 1.82985,-1.03774 3.43793,-2.16563 4.77403,-3.3028 1.3361,-1.13718 2.40629,-2.2894 3.38985,-3.40873 0.98356,-1.11933 1.88467,-2.21034 2.67104,-3.37607 0.78637,-1.165729 1.4604,-2.409524 2.10553,-3.684943 0.64513,-1.27542 1.26328,-2.586199 1.78004,-4.181296 0.51677,-1.595098 0.93382,-3.47927 1.19392,-4.912907 0.2601,-1.433637 0.36476,-2.427898 0.40408,-2.896729 0.0393,-0.468831 0.0133,-0.416678 -0.0874,-0.116612 -0.10066,0.300065 -0.26785,0.823434 -0.50243,1.369071 -0.23458,0.545636 -0.53153,1.098713 -1.02329,1.912754 -0.49175,0.814041 -1.1748,1.883163 -1.97135,2.960802 -0.79654,1.07764 -1.70329,2.159051 -2.72769,3.213393 -1.02439,1.054342 -2.16742,2.081951 -3.37704,3.036675 -1.20962,0.954725 -2.48448,1.835613 -4.05337,2.714092 -1.56889,0.87848 -3.42734,1.75195 -5.13544,2.40139 -1.70811,0.64944 -3.26216,1.07328 -4.36907,1.31689 -1.10691,0.24362 -1.77264,0.3072 -2.08631,0.32792 -0.31366,0.0207 -0.27886,-5e-4 -0.10743,-0.15338 0.17144,-0.15289 0.50122,-0.45709 1.15877,-1.1978 0.65755,-0.74071 1.66028,-1.93549 2.35681,-2.81982 0.69653,-0.884323 1.09095,-1.463053 1.52871,-2.134421 0.43776,-0.671368 0.92117,-1.438921 1.60732,-2.594167 0.68614,-1.155246 1.57874,-2.704396 2.48747,-4.676259 0.90872,-1.971862 1.83847,-4.377391 2.61159,-7.090864 0.77313,-2.713473 1.39216,-5.742294 1.73086,-8.647463 0.33871,-2.905168 0.39765,-5.690464 0.1767,-8.76125 -0.22095,-3.070785 -0.722,-6.430773 -1.5984,-9.671134 -0.87641,-3.240361 -2.12889,-6.364189 -3.49877,-9.177569 -1.36988,-2.81338 -2.858,-5.318132 -4.22873,-7.233918 -1.37074,-1.915785 -2.62132,-3.239934 -3.19958,-3.834787 -0.57825,-0.594853 -0.48252,-0.458611 -0.38303,-0.224721 0.0995,0.23389 0.20245,0.564862 0.28912,1.034878 0.0867,0.470016 0.1565,1.076534 0.27632,2.254448 0.11982,1.177913 0.28898,2.921075 0.27612,5.319308 -0.0129,2.398232 -0.20795,5.446068 -0.65173,8.26015 -0.44378,2.814082 -1.13592,5.391179 -1.91497,7.785819 -0.77905,2.39464 -1.64413,4.603919 -2.79588,6.865967 -1.15176,2.262049 -2.58847,4.573283 -3.92204,6.500793 -1.33357,1.927509 -2.56212,3.468393 -4.3466,5.258942 -1.78448,1.790548 -4.12112,3.826897 -5.28793,4.829993 -1.16682,1.003097 -1.1613,0.971898 -1.09895,0.808941 0.0623,-0.162957 0.19021,-0.479774 0.45082,-1.235837 0.26061,-0.756063 0.66171,-1.972087 0.96939,-3.004356 0.30767,-1.032268 0.52403,-1.88728 0.79845,-3.843461 0.27442,-1.956181 0.60822,-5.022905 0.66545,-7.996258 0.0572,-2.973354 -0.16159,-5.859803 -0.66152,-8.770677 -0.49993,-2.910873 -1.28143,-5.84931 -2.51041,-9.031064 -1.22898,-3.181754 -2.90646,-6.609639 -4.69275,-9.526021 -1.7863,-2.916382 -3.68236,-5.322921 -5.87492,-7.62485 -2.19255,-2.301929 -4.68227,-4.499966 -7.44261,-6.505138 -2.76034,-2.005172 -5.79151,-3.817624 -9.0869,-5.285947 -3.2954,-1.468323 -6.86054,-2.594158 -9.52498,-3.248245 -2.66444,-0.654087 -4.43046,-0.837092 -5.62299,-0.82017 -1.19253,0.01692 -1.81094,0.234102 -2.11356,0.35213 -0.30262,0.118028 -0.28792,0.136405 0.19257,0.223582 0.48048,0.08718 1.41339,0.240833 2.3611,0.566581 0.9477,0.325748 1.90607,0.823363 3.1579,1.510035 1.25184,0.686672 2.79925,1.563539 4.64404,2.826544 1.84478,1.263005 3.98865,2.913268 6.25399,5.065281 2.26534,2.152012 4.65311,4.806645 6.9302,8.045234 2.2771,3.238589 4.44372,7.061425 6.05998,11.457346 1.61627,4.395921 2.68192,9.364415 2.94973,14.382886 0.2678,5.018471 -0.26245,10.085304 -1.36217,14.683956 -1.09973,4.598651 -2.78899,8.777336 -4.39108,11.926517 -1.6021,3.149181 -3.12636,5.291978 -4.60163,7.89946 -1.47526,2.607482 -2.90757,5.693596 -3.95007,8.504116 -1.0425,2.81052 -1.69779,5.35069 -2.15885,8.50453 -0.46106,3.15383 -0.73008,6.95817 -0.61395,10.50769 0.11613,3.54952 0.61598,6.86109 1.56404,10.41379 0.94805,3.55269 2.34353,7.34341 4.56255,11.26057 2.21901,3.91716 5.26023,7.95823 8.21355,11.05737 2.95332,3.09914 5.8178,5.25531 7.77643,6.42198 1.95863,1.16667 3.01077,1.34376 3.80661,1.3256 0.79584,-0.0182 1.33586,-0.23126 1.96198,-0.71834 0.62613,-0.48708 1.3422,-1.25113 1.90704,-2.06638 0.56484,-0.81525 0.98156,-1.68558 1.22987,-2.52465 0.2483,-0.83907 0.32944,-1.65042 0.29626,-2.47283 -0.0332,-0.82241 -0.18068,-1.65954 -0.50823,-2.52987 -0.32755,-0.87033 -0.83627,-1.77718 -1.35525,-2.46937 -0.51898,-0.69219 -1.05704,-1.17831 -1.57475,-1.5234 -0.5177,-0.34509 -1.01944,-0.55294 -1.27059,-0.65698 -0.25114,-0.10404 -0.25118,-0.10406 -0.021,0.0925 z"
       id="path6110"
       inkscape:connector-curvature="0"
       inkscape:path-effect="#path-effect6112"
       inkscape:original-d="m 149.99226,149.98903 c 0.46123,0.39206 0.92145,0.78513 1.38068,1.1792 0.42182,0.81434 0.84279,1.63523 1.26269,2.45435 0.0852,0.96489 0.16936,1.92987 0.25254,2.8963 -0.31497,0.86528 -0.63035,1.72994 -0.94702,2.59641 -0.28877,0.28877 -0.57773,0.57773 -0.8681,0.8681 -0.36856,-0.0485 -0.73557,-0.0957 -1.10486,-0.14206 -1.00095,-0.84211 -1.99826,-1.67932 -2.99889,-2.51749 -1.06712,-1.29274 -2.13505,-2.58425 -3.20407,-3.87488 -0.9229,-1.75691 -1.84695,-3.5131 -2.77193,-5.26816 -0.4007,-1.73054 -0.80257,-3.46082 -1.20535,-5.18973 -0.0585,-1.54797 -0.11805,-3.09624 -0.17857,-4.64286 0.33933,-1.91201 0.67808,-3.8254 1.01562,-5.7366 0.73345,-1.61091 1.46677,-3.22273 2.19866,-4.83259 1.00843,-1.41364 2.01737,-2.82838 3.02455,-4.24107 1.50277,-1.3355 3.00696,-2.67214 4.50893,-4.0067 1.85238,-0.95271 3.70636,-1.90576 5.55804,-2.85714 1.82646,-0.46201 3.65427,-0.92362 5.47991,-1.38393 2.17965,0.0659 4.36112,0.13293 6.54018,0.20089 2.1615,-0.54019 4.32392,-1.07987 6.48437,-1.6183 2.05346,-0.94915 4.10815,-1.89832 6.16072,-2.84599 1.6072,-1.12757 3.21528,-2.25546 4.82143,-3.38169 1.06423,-1.14974 2.13641,-2.30011 3.20312,-3.44866 0.90049,-1.09005 1.8016,-2.18106 2.70089,-3.27009 0.6737,-1.242324 1.34773,-2.486121 2.02009,-3.72768 0.61797,-1.309268 1.23612,-2.620048 1.85268,-3.928572 0.41729,-1.881709 0.83434,-3.765881 1.25,-5.647321 0.10139,-0.986253 0.20934,-1.980167 0.3125,-2.96875 -0.025,0.05103 -0.0511,0.103167 -0.0781,0.15625 -0.17408,0.547057 -0.34126,1.070429 -0.5134,1.607143 -0.29728,0.554554 -0.59423,1.107631 -0.89285,1.662946 -0.685,1.072735 -1.36805,2.141857 -2.05357,3.214286 -0.90773,1.082765 -1.81448,2.164179 -2.72322,3.247768 -1.13853,1.026809 -2.28322,2.052571 -3.42634,3.080357 -1.27621,0.881507 -2.55108,1.762393 -3.82812,2.645093 -1.86079,0.87404 -3.71924,1.74751 -5.58036,2.62276 -1.55507,0.42339 -3.10912,0.84722 -4.66518,1.27233 -0.65798,0.0586 -1.3234,0.12548 -1.98661,0.18973 0.0358,-0.0222 0.0706,-0.0434 0.10436,-0.0636 0.30924,-0.28534 0.63902,-0.58954 0.95703,-0.88281 0.99722,-1.18803 1.99995,-2.38281 2.99843,-3.572712 0.39471,-0.578683 0.78913,-1.157414 1.1822,-1.734621 0.48249,-0.765511 0.9659,-1.533065 1.44736,-2.298097 0.89089,-1.54544 1.78349,-3.094592 2.67374,-4.640388 0.92101,-2.40038 1.85716,-4.803434 2.78424,-7.20365 0.6194,-3.026781 1.23843,-6.055602 1.85615,-9.081903 0.0599,-2.78417 0.11885,-5.569466 0.17678,-8.352699 -0.49969,-3.358526 -1.00074,-6.718514 -1.5026,-10.076271 -1.25086,-3.123282 -2.50334,-6.24711 -3.75651,-9.369165 -1.48662,-2.504923 -2.97474,-5.009673 -4.46361,-7.51301 -1.2547,-1.326666 -2.50334,-2.65265 -3.7565,-3.977476 0.0968,0.135263 0.1925,0.271531 0.28726,0.408796 0.10427,0.330941 0.20724,0.661913 0.30936,0.994369 0.0711,0.607822 0.14094,1.21434 0.20992,1.82301 0.17065,1.747178 0.33982,3.49034 0.50823,5.237009 -0.19429,3.049961 -0.38938,6.097797 -0.58557,9.148195 -0.69162,2.577889 -1.38375,5.154987 -2.07713,7.73398 -0.86488,2.210309 -1.72996,4.419589 -2.59644,6.630883 -1.43729,2.312763 -2.874,4.624 -4.3125,6.9375 -1.22879,1.541447 -2.45733,3.082334 -3.6875,4.625 -2.33898,2.038257 -4.67562,4.074609 -7.01494,6.113413 0.007,-0.03232 0.012,-0.06361 0.0166,-0.09391 0.11988,-0.295536 0.24775,-0.612353 0.37012,-0.917029 0.39894,-1.207458 0.80004,-2.423481 1.19855,-3.633721 0.21693,-0.854321 0.43329,-1.709333 0.64844,-2.5625 0.33387,-3.059277 0.66767,-6.126 1,-9.1875 -0.21767,-2.885384 -0.4365,-5.771833 -0.65625,-8.65625 -0.78,-2.937564 -1.5615,-5.876 -2.34375,-8.8125 -1.67569,-3.427283 -3.35317,-6.855166 -5.03125,-10.28125 -1.89461,-2.40696 -3.79067,-4.8135 -5.6875,-7.21875 -2.48845,-2.198797 -4.97817,-4.396833 -7.46875,-6.59375 -3.03033,-1.813547 -6.0615,-3.626 -9.09375,-5.4375 -3.56185,-1.115692 -7.124,-2.251 -10.6875,-3.375 -1.76565,-0.184069 -3.53167,-0.367075 -5.29901,-0.549113 -0.61803,0.216397 -1.23644,0.433576 -1.85616,0.651864 0.0158,0.01745 0.0305,0.03583 0.0442,0.05524 0.94634,0.154704 1.87925,0.308359 2.81738,0.464039 0.95771,0.495754 1.91608,0.993369 2.87262,1.491553 1.54718,0.875171 3.09459,1.752036 4.64038,2.629554 2.14397,1.648566 4.28784,3.298831 6.43026,4.949747 2.38845,2.653275 4.77622,5.307909 7.16283,7.963363 2.16771,3.821997 4.33433,7.644834 6.5,11.46875 1.06684,4.968347 2.1325,9.93684 3.19724,14.90676 -0.52941,5.067365 -1.05966,10.134198 -1.59099,15.202796 -1.67874,4.124679 -3.35775,8.307505 -5.03813,12.462757 -1.52414,2.14304 -3.0484,4.285835 -4.5741,6.430252 -1.42133,3.072124 -2.85689,6.156725 -4.28683,9.236585 -0.65481,2.54116 -1.3101,5.08133 -1.96664,7.62349 -0.26681,3.76529 -0.53437,7.56974 -0.80305,11.35611 0.50114,3.31243 1.001,6.624 1.5,9.9375 1.39718,3.79162 2.79267,7.58233 4.1875,11.375 3.04311,4.04126 6.08433,8.08233 9.125,12.125 2.8657,2.15533 5.73017,4.3115 8.59375,6.46875 1.05303,0.17607 2.10517,0.35317 3.15625,0.53125 0.5402,-0.21379 1.08022,-0.4269 1.61884,-0.63885 0.71387,-0.76165 1.42994,-1.5257 2.14341,-2.28705 0.4166,-0.86898 0.83333,-1.7393 1.24849,-2.60746 0.0819,-0.8101 0.16304,-1.62145 0.24307,-2.43068 -0.14612,-0.83588 -0.29363,-1.67301 -0.44194,-2.50802 -0.50675,-0.90611 -1.01547,-1.81296 -1.5247,-2.71794 -0.52914,-0.47959 -1.06703,-0.9659 -1.60204,-1.44736 -0.50084,-0.20889 -1.00258,-0.41674 -1.50537,-0.62361 z" />
    <path
       style="fill:#0089b0;fill-opacity:1;stroke:none;stroke-width:0.5;stroke-linecap:butt;stroke-linejoin:miter;stroke-miterlimit:4;stroke-dasharray:none;stroke-opacity:1"
       d="m 149.77018,150.12461 c -0.22208,0.13559 -0.66742,0.40747 -1.24795,0.49944 -0.58054,0.092 -1.2922,0.004 -1.94261,-0.23874 -0.65042,-0.24241 -1.23565,-0.63776 -1.7203,-1.18763 -0.48466,-0.54986 -0.86733,-1.25272 -1.06519,-1.89868 -0.19787,-0.64597 -0.21085,-1.22967 -0.0754,-1.83603 0.13546,-0.60636 0.41978,-1.23501 1.33824,-2.52363 0.91847,-1.28862 2.47718,-3.24586 4.24529,-4.98072 1.76811,-1.73486 3.75059,-3.25305 5.62471,-4.44224 1.87412,-1.18918 3.64288,-2.05145 5.93264,-2.83551 2.28977,-0.78406 5.10537,-1.49165 7.66069,-1.83032 2.55533,-0.33867 4.85438,-0.30919 7.08559,-0.0441 2.23122,0.26514 4.39766,0.76622 5.96622,1.26334 1.56856,0.49712 2.54116,0.99079 3.62802,1.29973 1.08686,0.30894 2.30186,0.43489 3.86281,0.33911 1.56095,-0.0958 3.47742,-0.41274 5.14829,-0.88586 1.67087,-0.47311 3.11692,-1.11085 4.44954,-1.89874 1.33262,-0.78789 2.56374,-1.7315 3.5834,-2.70344 1.01967,-0.97193 1.83062,-1.97457 2.49398,-2.94122 0.66336,-0.96665 1.18219,-1.90191 1.60877,-2.74312 0.42658,-0.84122 0.76294,-1.59217 1.06728,-2.53525 0.30434,-0.94308 0.57822,-2.08293 0.75254,-3.41541 0.17433,-1.33248 0.24993,-2.86271 0.0286,-4.57541 -0.22129,-1.71271 -0.73987,-3.61245 -1.26711,-4.96885 -0.52723,-1.35641 -1.06389,-2.17181 -1.31324,-2.58326 -0.24935,-0.41145 -0.21289,-0.41925 0.20095,-0.74244 0.41384,-0.32318 1.25717,-1.00308 2.61661,-1.880449 1.35943,-0.877365 3.26601,-1.976322 5.29941,-2.943372 2.0334,-0.967049 4.19883,-1.804917 6.87369,-2.462892 2.67486,-0.657975 5.86414,-1.137409 8.0669,-1.272709 2.20275,-0.1353 3.42193,0.07311 4.00713,0.184911 0.58521,0.111806 0.54524,0.124767 0.36644,0.169301 -0.17881,0.04453 -0.48424,0.117255 -1.11765,0.421908 -0.6334,0.304654 -1.58364,0.836643 -2.31467,1.330608 -0.73102,0.493966 -1.24329,0.951929 -2.06727,1.73056 -0.82398,0.778631 -1.95706,1.875325 -3.03844,3.409954 -1.08138,1.53463 -2.10651,3.50161 -2.80949,5.51277 -0.70298,2.01115 -1.08389,4.07222 -1.15429,6.11199 -0.0704,2.03976 0.16904,4.05947 0.62487,5.84646 0.45582,1.78699 1.1274,3.3384 1.82547,4.61475 0.69806,1.27634 1.4218,2.27604 1.78085,2.78213 0.35905,0.5061 0.35267,0.5189 0.33665,0.5468 -0.016,0.0279 -0.0373,0.0633 -0.10464,0.17274 -0.0674,0.1094 -0.17219,0.27862 -0.42262,0.7095 -0.25042,0.43089 -0.63791,1.10902 -1.39547,2.144 -0.75756,1.03498 -1.87888,2.41733 -2.91222,3.54101 -1.03333,1.12367 -1.9754,1.98479 -2.73249,2.61853 -0.75709,0.63375 -1.3273,1.03841 -1.60376,1.24013 -0.27645,0.20172 -0.25856,0.19939 0.0734,0.17628 0.33199,-0.0231 1.06351,-0.0729 2.31539,-0.20363 1.25187,-0.13072 3.07238,-0.3459 5.01451,-0.79439 1.94213,-0.44849 4.0111,-1.1312 5.95538,-1.96529 1.94428,-0.8341 3.77966,-1.82761 5.72921,-3.131 1.94954,-1.30338 4.02327,-2.92245 5.8029,-4.60762 1.77964,-1.68517 3.2683,-3.43914 4.52739,-5.25794 1.25909,-1.81881 2.29092,-3.70559 3.07878,-5.38451 0.78785,-1.67891 1.33326,-3.15299 1.70134,-4.43414 0.36808,-1.28115 0.55974,-2.37217 0.66322,-2.80415 0.10348,-0.43198 0.11923,-0.20555 0.31791,0.44375 0.19868,0.64931 0.57733,1.71265 1.0042,3.59627 0.42687,1.88362 0.89984,4.58049 1.02604,7.32941 0.12621,2.74892 -0.0947,5.54705 -0.66188,8.36122 -0.56718,2.81417 -1.48018,5.64152 -2.67356,8.22739 -1.19338,2.58587 -2.6659,4.92717 -4.38984,7.12273 -1.72394,2.19556 -3.69696,4.24221 -5.78191,5.97363 -2.08495,1.73143 -4.27883,3.14494 -6.77652,4.35334 -2.49769,1.20839 -5.29518,2.2096 -7.74121,2.84965 -2.44603,0.64006 -4.5662,0.92176 -6.76921,1.03968 -2.20302,0.11792 -4.4999,0.0737 -6.36206,-0.0968 -1.86216,-0.17056 -3.26459,-0.46274 -3.94221,-0.6008 -0.67761,-0.13806 -0.61852,-0.11959 -0.56297,-0.0534 0.0556,0.0662 0.1095,0.18337 0.24599,0.47724 0.13649,0.29387 0.3544,0.76212 0.6912,1.76599 0.33681,1.00387 0.79081,2.53889 1.15617,5.25311 0.36535,2.71423 0.64128,6.60322 0.25857,10.20503 -0.38272,3.60182 -1.42414,6.91353 -2.85135,9.93488 -1.42722,3.02135 -3.23906,5.74953 -4.95801,7.83328 -1.71895,2.08374 -3.34326,3.52063 -3.98646,4.03606 -0.6432,0.51542 -0.30488,0.10943 0.17948,-0.69061 0.48436,-0.80004 1.12475,-2.01258 1.88201,-3.89152 0.75727,-1.87894 1.63835,-4.43877 2.1824,-7.38323 0.54405,-2.94446 0.75248,-6.27936 0.47124,-9.6849 -0.28124,-3.40553 -1.05232,-6.8858 -2.25008,-10.19779 -1.19776,-3.31198 -2.82311,-6.45849 -4.85413,-9.36441 -2.03102,-2.90592 -4.46882,-5.57291 -7.36444,-7.84361 -2.89561,-2.2707 -6.24983,-4.14573 -9.49981,-5.48953 -3.24998,-1.34379 -6.3955,-2.15621 -9.47901,-2.55214 -3.08351,-0.39592 -6.10368,-0.37509 -9.1145,0.28112 -3.01081,0.65621 -6.00981,1.94744 -8.10665,3.18666 -2.09684,1.23922 -3.28934,2.42552 -3.92513,3.16383 -0.63579,0.7383 -0.71358,1.02786 -0.75132,1.38334 -0.0378,0.35548 -0.0351,0.77303 0.13975,1.25452 0.17484,0.48148 0.52037,1.02186 0.8815,1.36066 0.36113,0.33881 0.73595,0.47416 0.99784,0.53469 0.26188,0.0605 0.41056,0.0464 0.48425,0.0395 0.0737,-0.007 0.0734,-0.007 -0.14865,0.12848 z"
       id="path6114"
       inkscape:connector-curvature="0"
       inkscape:path-effect="#path-effect6116"
       inkscape:original-d="m 149.99226,149.98903 c -0.44433,0.27088 -0.88967,0.54277 -1.33601,0.81566 -0.71442,-0.0898 -1.42608,-0.17809 -2.14063,-0.26563 -0.58564,-0.39731 -1.17087,-0.79266 -1.75781,-1.1875 -0.38196,-0.70439 -0.76462,-1.40725 -1.14844,-2.10937 -0.009,-0.58925 -0.025,-1.17288 -0.0391,-1.75781 0.28438,-0.62756 0.56871,-1.25621 0.85156,-1.88282 1.55374,-1.95074 3.11245,-3.90798 4.66718,-5.86047 1.98125,-1.51748 3.96374,-3.03567 5.94411,-4.552 1.76778,-0.8623 3.53654,-1.72457 5.3033,-2.58536 2.81279,-0.70762 5.62839,-1.41521 8.44109,-2.12132 2.29814,0.0285 4.59719,0.0579 6.89429,0.0884 2.16559,0.49965 4.33203,1.00073 6.49654,1.5026 0.97295,0.49234 1.94555,0.98601 2.91682,1.48051 1.20112,0.13153 2.41695,0.24943 3.62392,0.37565 1.91468,-0.3175 3.83116,-0.63445 5.74524,-0.95018 1.4291,-0.62671 2.87363,-1.2679 4.30894,-1.90035 1.23003,-0.94301 2.46114,-1.88662 3.69021,-2.82842 0.81049,-1.00183 1.62145,-2.00447 2.43068,-3.00521 0.52081,-0.93074 1.03654,-1.86772 1.55331,-2.80009 0.33651,-0.75004 0.67287,-1.501 1.00781,-2.25 0.274,-1.13719 0.54788,-2.27704 0.82031,-3.41406 0.0764,-1.52807 0.15205,-3.05829 0.22657,-4.58594 -0.51688,-1.89813 -1.03546,-3.79787 -1.55469,-5.69531 -0.53527,-0.81581 -1.07192,-1.63121 -1.60938,-2.44531 0.0374,-0.009 0.0739,-0.0166 0.10938,-0.0234 0.79227,-0.63893 1.6356,-1.31883 2.45189,-1.97674 1.90249,-1.097019 3.80907,-2.195978 5.7121,-3.292467 2.16374,-0.837827 4.32917,-1.675695 6.49226,-2.512043 3.18672,-0.479899 6.376,-0.959333 9.5625,-1.4375 1.21932,0.20726 2.4385,0.415667 3.65625,0.625 -0.047,0.01705 -0.0877,0.02775 -0.13299,0.04313 -0.31294,0.07086 -0.61772,0.146314 -0.92808,0.220971 -0.95647,0.535035 -1.90671,1.067026 -2.86157,1.602039 -0.50719,0.45304 -1.01932,0.911159 -1.53049,1.368239 -1.13675,1.100226 -2.26983,2.196917 -3.40625,3.296875 -1.02596,1.969506 -2.05108,3.936496 -3.07812,5.906246 -0.37944,2.05233 -0.75942,4.11358 -1.14063,6.17188 0.24072,2.02095 0.48017,4.04066 0.71875,6.0625 0.67317,1.55175 1.34475,3.10316 2.01563,4.65625 0.72518,0.9993 1.44892,1.999 2.17187,3 -0.006,0.012 -0.012,0.025 -0.0195,0.0391 -0.0246,0.0417 -0.0459,0.0771 -0.0703,0.11718 -0.11033,0.17874 -0.21514,0.34796 -0.32422,0.52344 -0.39173,0.6863 -0.77922,1.36443 -1.17033,2.04815 -1.12422,1.38615 -2.24554,2.7685 -3.36981,4.15425 -0.94255,0.86147 -1.88462,1.72258 -2.82842,2.58536 -0.57048,0.40456 -1.14069,0.80923 -1.71253,1.21534 0.019,-0.003 0.0368,-0.006 0.0538,-0.007 0.64707,-0.045 1.3786,-0.0947 2.06641,-0.14063 1.8159,-0.21551 3.63641,-0.43069 5.45312,-0.64453 2.06745,-0.68288 4.13642,-1.36558 6.20312,-2.04687 1.82286,-0.98481 3.65725,-1.98017 5.48438,-2.96875 2.07204,-1.61797 4.14577,-3.23704 6.21716,-4.85406 1.48808,-1.7531 2.97674,-3.50707 4.46361,-5.25911 1.03157,-1.88546 2.0634,-3.77224 3.0936,-5.65685 0.54571,-1.47321 1.09112,-2.94728 1.63518,-4.41942 0.19235,-1.09023 0.38402,-2.18125 0.57452,-3.27037 0.0167,0.22495 0.0325,0.45137 0.0472,0.67856 0.38276,1.07107 0.76142,2.13441 1.14062,3.20312 0.47448,2.69876 0.94744,5.39563 1.41966,8.09494 -0.22004,2.7988 -0.44094,5.59693 -0.66291,8.39689 -0.9127,2.82851 -1.82569,5.65586 -2.74004,8.48529 -1.47276,2.34228 -2.94528,4.68358 -4.41942,7.02687 -1.97399,2.04768 -3.94701,4.09433 -5.92202,6.14299 -2.19507,1.41392 -4.38895,2.82743 -6.58493,4.24264 -2.79945,1.00126 -5.59693,2.00247 -8.39689,3.0052 -2.09176,0.27902 -4.21218,0.5588 -6.31977,0.83969 -2.29831,-0.0452 -4.59519,-0.0894 -6.89429,-0.13258 -1.42855,-0.28102 -2.82743,-0.59026 -4.24264,-0.88388 0.0601,0.0175 0.11921,0.0359 0.17732,0.0554 0.0538,0.11365 0.10777,0.23077 0.16015,0.34765 0.22059,0.47086 0.4385,0.93911 0.65625,1.41016 0.45586,1.53689 0.90986,3.07192 1.36328,4.60938 0.27716,3.89126 0.55309,7.78025 0.82813,11.67187 -1.04091,3.31229 -2.08233,6.624 -3.125,9.9375 -1.81216,2.72915 -3.624,5.45733 -5.4375,8.1875 -1.62469,1.43711 -3.249,2.874 -4.875,4.3125 0.33976,-0.40751 0.67808,-0.8135 1.01562,-1.21875 0.62953,-1.19573 1.27184,-2.40725 1.90625,-3.60937 0.88034,-2.55576 1.76142,-5.11559 2.64063,-7.67188 0.20923,-3.33277 0.41767,-6.66767 0.625,-10 -0.76959,-3.47906 -1.54067,-6.95933 -2.3125,-10.4375 -1.62365,-3.14616 -3.249,-6.29267 -4.875,-9.4375 -2.4362,-2.66734 -4.874,-5.33433 -7.3125,-8 -3.35311,-1.87597 -6.70733,-3.751 -10.0625,-5.625 -3.14515,-0.81358 -6.29067,-1.626 -9.4375,-2.4375 -3.0205,0.0198 -6.04067,0.0407 -9.0625,0.0625 -3,1.2911 -5.999,2.58233 -9,3.875 -1.19247,1.18625 -2.38497,2.37255 -3.57896,3.56032 -0.0769,0.28903 -0.15469,0.57858 -0.23354,0.86937 0.004,0.41998 0.006,0.83754 0.008,1.25781 0.34818,0.54195 0.69371,1.08233 1.03906,1.625 0.37618,0.13448 0.751,0.26983 1.125,0.40625 0.14924,-0.0151 0.29793,-0.0291 0.44539,-0.0422 z" />
    <path
       style="fill:#0089b0;fill-opacity:1;stroke:none;stroke-width:0.5;stroke-linecap:butt;stroke-linejoin:miter;stroke-miterlimit:4;stroke-dasharray:none;stroke-opacity:1"
       d="m 150.50717,149.78489 c 0.51492,-0.20414 1.54354,-0.61194 2.82504,-0.77135 1.28151,-0.15942 2.81977,-0.0708 4.35547,0.37957 1.53571,0.45034 3.07311,1.26334 4.807,2.95556 1.7339,1.69222 3.66666,4.26575 4.96091,6.60933 1.29425,2.34358 1.95047,4.45804 2.32555,6.54151 0.37509,2.08348 0.46882,4.13496 -0.0521,7.66726 -0.52094,3.5323 -1.65583,8.54039 -2.89021,12.49905 -1.23439,3.95865 -2.56741,6.86423 -4.32818,9.95347 -1.76076,3.08925 -3.94735,6.35873 -6.36436,9.25509 -2.417,2.89637 -5.06191,5.41631 -8.09946,7.75764 -3.03756,2.34132 -6.48313,4.51308 -9.82743,6.58634 -3.3443,2.07326 -6.59319,4.05176 -9.45455,5.47916 -2.86136,1.42741 -5.33232,2.30213 -7.18003,3.44309 -1.84771,1.14097 -3.06982,2.54713 -3.98727,3.92864 -0.91745,1.38152 -1.52834,2.73578 -1.91164,4.14333 -0.3833,1.40755 -0.53784,2.86466 -0.50474,4.23162 0.0331,1.36696 0.2539,2.64027 0.56704,3.67192 0.31314,1.03166 0.718,1.81929 0.89264,2.18928 0.17463,0.37 0.1185,0.32139 -0.13523,-0.0186 -0.25374,-0.33996 -0.70364,-0.96931 -1.15799,-2.10878 -0.45435,-1.13948 -0.91275,-2.78872 -1.21913,-4.71763 -0.30638,-1.92892 -0.46112,-4.13952 -0.32114,-6.56606 0.13999,-2.42655 0.57474,-5.07194 1.44013,-7.74515 0.86538,-2.6732 2.1623,-5.37757 3.68679,-7.71567 1.52449,-2.33809 3.27831,-4.31298 4.90214,-5.8299 1.62384,-1.51693 3.11988,-2.57816 4.11777,-3.22244 0.9979,-0.64428 1.49914,-0.87279 1.71552,-0.99818 0.21637,-0.12538 0.14859,-0.14866 -0.001,-0.23779 -0.1496,-0.0891 -0.37677,-0.24145 -1.12082,-0.65452 -0.74405,-0.41308 -2.00062,-1.08429 -3.51498,-1.58956 -1.51437,-0.50528 -3.28469,-0.84373 -5.01149,-0.96881 -1.7268,-0.12508 -3.40835,-0.0366 -5.38593,0.48973 -1.97759,0.5263 -4.25838,1.49411 -6.42126,2.75084 -2.16287,1.25672 -4.20945,2.8027 -6.6777,4.17321 -2.468255,1.37052 -5.354031,2.56311 -8.455707,3.49146 -3.101677,0.92835 -6.414855,1.59099 -9.567975,1.90782 -3.15312,0.31684 -6.142551,0.28739 -8.978904,-0.007 -2.836353,-0.29465 -5.516577,-0.85426 -7.682148,-1.02379 -2.165571,-0.16953 -3.815018,0.0514 -5.502297,0.53758 -1.687279,0.4862 -3.40969,1.23699 -4.76085,2.04657 -1.35116,0.80958 -2.328388,1.67662 -2.789478,2.06734 -0.461089,0.39071 -0.405148,0.30485 -0.30669,0.0416 0.09846,-0.26329 0.243619,-0.71593 0.511958,-1.59308 0.268339,-0.87714 0.663928,-2.19185 1.476095,-3.82268 0.812167,-1.63083 2.051493,-3.59702 3.514664,-5.41674 1.463171,-1.81973 3.156887,-3.50302 4.911637,-4.93484 1.754749,-1.43182 3.573533,-2.61481 5.47136,-3.55453 1.897827,-0.93972 3.878255,-1.63808 5.536658,-2.07539 1.658403,-0.4373 2.997758,-0.61449 3.570073,-0.69844 0.572314,-0.084 0.378138,-0.0748 -0.349875,-0.0722 -0.728012,0.003 -1.976463,-0.001 -2.850522,-0.0728 -0.87406,-0.0716 -1.365856,-0.21078 -2.295641,-0.55591 -0.929785,-0.34512 -2.293336,-0.89459 -3.617052,-1.73669 -1.323716,-0.84211 -2.616027,-1.98544 -3.587758,-3.06013 -0.971732,-1.07469 -1.627947,-2.08505 -2.107093,-3.09554 -0.479147,-1.01049 -0.781303,-2.02115 -1.062477,-2.86464 -0.281174,-0.84348 -0.541759,-1.521 -1.148093,-2.44219 -0.606333,-0.9212 -1.560213,-2.08879 -2.541804,-3.03916 -0.981592,-0.95037 -1.992102,-1.68481 -3.083448,-2.65634 -1.091347,-0.97153 -2.263015,-2.17965 -3.395883,-3.56776 -1.132868,-1.3881 -2.226632,-2.95583 -3.197541,-4.81199 -0.97091,-1.85616 -1.819132,-4.001 -2.419256,-6.06398 -0.600124,-2.06298 -0.955032,-4.05934 -1.087541,-6.19137 -0.13251,-2.13204 -0.04409,-4.40895 0.250697,-6.06607 0.294784,-1.65713 0.795881,-2.69617 1.498949,-3.74142 0.703067,-1.04525 1.6101,-2.09977 2.471582,-2.90957 0.861481,-0.8098 1.679905,-1.37753 2.666131,-1.87056 0.986226,-0.49303 2.144257,-0.91346 3.303646,-1.12317 1.159388,-0.2097 2.32438,-0.2097 2.86102,-0.19509 0.53664,0.0146 0.446889,0.0439 0.04165,0.16131 -0.40524,0.11739 -1.106588,0.31725 -1.735886,0.55858 -0.629298,0.24132 -1.175287,0.52075 -1.78032,0.96442 -0.605033,0.44367 -1.265143,1.0488 -1.750097,1.75096 -0.484955,0.70216 -0.791766,1.49779 -0.914362,2.88221 -0.122596,1.38442 -0.06019,3.35019 0.247519,5.38738 0.307709,2.03719 0.860234,4.14047 1.54187,5.96643 0.681636,1.82597 1.491597,3.37226 2.891411,5.16992 1.399814,1.79765 3.388072,3.84482 5.506674,5.4271 2.118601,1.58228 4.378356,2.70477 5.835465,3.30064 1.457109,0.59587 2.117195,0.66815 2.444046,0.69348 0.326852,0.0253 0.321627,0.004 0.155808,-0.0785 -0.165819,-0.0829 -0.51583,-0.23907 -1.003505,-0.67981 -0.487675,-0.44074 -1.122223,-1.16891 -1.726421,-2.02315 -0.604198,-0.85424 -1.17717,-1.8335 -1.664098,-2.8647 -0.486929,-1.0312 -0.888098,-2.11488 -1.08275,-3.74438 -0.194651,-1.6295 -0.183112,-3.80694 0.220468,-5.84493 0.40358,-2.038 1.199443,-3.93923 1.987315,-5.85369 0.787872,-1.91447 1.569132,-3.84551 2.379129,-7.01081 0.809998,-3.1653 1.649082,-7.56398 1.870718,-12.23185 0.221635,-4.66787 -0.174302,-9.60666 -1.299196,-14.71018 -1.124893,-5.10351 -2.979403,-10.37532 -5.406284,-15.06239 -2.426882,-4.687073 -5.42721,-8.791688 -7.929674,-11.726429 -2.502463,-2.934741 -4.507758,-4.700442 -5.483748,-5.593943 -0.97599,-0.893501 -0.92391,-0.914333 -0.112144,-0.64713 0.811767,0.267203 2.458435,0.848067 4.645364,1.795746 2.186928,0.947679 4.953542,2.276279 7.674531,4.052091 2.720989,1.775812 5.398481,4.00011 7.825499,6.509725 2.427017,2.50962 4.614443,5.31829 6.429533,8.46403 1.81509,3.14574 3.262934,6.63515 4.283837,9.90085 1.020903,3.2657 1.614568,6.30693 1.729218,10.43767 0.11465,4.13073 -0.24984,9.34815 -0.591931,12.67954 -0.342091,3.33139 -0.66174,4.77492 -0.62274,7.38411 0.039,2.6092 0.436427,6.3774 1.346397,9.91128 0.909969,3.53388 2.331601,6.82845 4.146968,9.85151 1.815366,3.02305 4.023378,5.77265 6.207262,8.03262 2.183884,2.25997 4.342928,4.02954 6.957579,5.68581 2.61465,1.65627 5.68484,3.19919 9.12606,4.30388 3.44122,1.10468 7.25421,1.77143 10.81649,2.01094 3.56227,0.2395 6.87547,0.052 10.82274,-0.92713 3.94727,-0.97909 8.53206,-2.75048 12.23994,-4.91706 3.70788,-2.16657 6.54196,-4.72974 8.66644,-7.57304 2.12449,-2.8433 3.54168,-5.96945 4.28099,-8.88551 0.73931,-2.91605 0.80183,-5.62543 0.19264,-7.79135 -0.6092,-2.16591 -1.89093,-3.79152 -3.03128,-4.86425 -1.14034,-1.07273 -2.14042,-1.59361 -2.88212,-1.91452 -0.7417,-0.32091 -1.22507,-0.44179 -1.56487,-0.49582 -0.3398,-0.054 -0.53562,-0.0409 -0.63421,-0.0344 -0.0986,0.007 -0.0986,0.007 0.41632,-0.19751 z"
       id="path6118"
       inkscape:connector-curvature="0"
       inkscape:path-effect="#path-effect6120"
       inkscape:original-d="m 149.99226,149.98903 c 1.02962,-0.4088 2.05824,-0.8166 3.08586,-1.2234 1.53566,0.0874 3.07392,0.17608 4.60938,0.26562 1.53652,0.811 3.07392,1.624 4.60937,2.4375 1.93283,2.5713 3.86559,5.14483 5.79688,7.71875 0.65729,2.11371 1.3135,4.22817 1.96875,6.34375 0.0948,2.05169 0.1885,4.10317 0.28125,6.15625 -1.13494,5.01174 -2.26983,10.01983 -3.40625,15.03125 -1.33264,2.90593 -2.66567,5.8115 -4,8.71875 -2.18741,3.27119 -4.374,6.54067 -6.5625,9.8125 -2.64577,2.52072 -5.29067,5.04067 -7.9375,7.5625 -3.43783,2.14566 -6.874,4.33233 -10.3125,6.5 -3.2501,1.97884 -6.499,3.95733 -9.75,5.9375 -2.47174,0.87435 -4.9427,1.74907 -7.41555,2.62511 -1.2223,1.40653 -2.44441,2.81269 -3.66811,4.22054 -0.61082,1.35532 -1.22171,2.70958 -1.83406,4.06587 -0.15382,1.4587 -0.30836,2.91581 -0.46404,4.37522 0.22214,1.27422 0.44294,2.54753 0.66291,3.8228 0.40637,0.78762 0.81123,1.57525 1.21534,2.36438 -0.0551,-0.0496 -0.11124,-0.0982 -0.16837,-0.14579 -0.45013,-0.63207 -0.90004,-1.26142 -1.35156,-1.89063 -0.45712,-1.64926 -0.91552,-3.2985 -1.37479,-4.94626 -0.15361,-2.20981 -0.30836,-4.42041 -0.46403,-6.62912 0.43539,-2.64418 0.87015,-5.28957 1.30372,-7.93286 1.29681,-2.70305 2.59373,-5.40742 3.88909,-8.10963 1.75326,-1.97412 3.50707,-3.94901 5.25911,-5.92202 1.49543,-1.06109 2.99147,-2.12232 4.48571,-3.18198 0.50148,-0.22916 1.00273,-0.45767 1.5026,-0.68501 -0.0665,-0.0242 -0.13431,-0.0474 -0.20297,-0.0697 -0.23016,-0.15598 -0.45733,-0.30829 -0.6875,-0.46094 -1.25806,-0.67354 -2.51463,-1.34475 -3.77344,-2.01562 -1.77034,-0.33964 -3.54066,-0.67809 -5.3125,-1.01563 -1.68203,0.0876 -3.36358,0.17608 -5.04687,0.26563 -2.27734,0.95102 -4.55283,1.93133 -6.83074,2.8985 -2.04775,1.54661 -4.09433,3.09259 -6.14299,4.64038 -2.88793,1.1929 -5.773707,2.38549 -8.662059,3.57973 -3.314949,0.66219 -6.628126,1.32483 -9.943689,1.98874 -2.990514,-0.0305 -5.979945,-0.0599 -8.971418,-0.0884 -2.681001,-0.56098 -5.361226,-1.12058 -8.043339,-1.67938 -1.649383,0.22004 -3.298832,0.44094 -4.949748,0.66292 -1.723736,0.7508 -3.446145,1.5016 -5.170718,2.2539 -0.977598,0.86726 -1.954826,1.73431 -2.933739,2.60297 0.05705,-0.087 0.112979,-0.17287 0.167969,-0.25781 0.142297,-0.44159 0.287458,-0.89423 0.429687,-1.33985 0.394474,-1.30868 0.790063,-2.62339 1.183594,-3.93359 1.229048,-1.95235 2.46975,-3.91767 3.703125,-5.875 1.6927,-1.68229 3.386417,-3.36558 5.078125,-5.04687 1.817631,-1.1826 3.636417,-2.36559 5.453125,-3.54688 1.978904,-0.69847 3.959333,-1.39683 5.9375,-2.09375 1.338728,-0.17798 2.678083,-0.35517 4.015625,-0.53125 -0.192849,0.008 -0.387021,0.0172 -0.582031,0.0273 -1.260967,-0.005 -2.509417,-0.009 -3.765625,-0.0117 -0.491579,-0.14043 -0.983375,-0.27964 -1.476563,-0.41796 -1.366231,-0.55195 -2.72978,-1.10142 -4.096171,-1.65062 -1.276017,-1.14003 -2.572907,-2.27819 -3.86086,-3.41579 -0.655283,-1.01147 -1.3115,-2.02183 -1.96875,-3.03125 -0.30101,-1.01117 -0.603167,-2.02183 -0.90625,-3.03125 -0.259251,-0.67765 -0.519833,-1.35517 -0.78125,-2.03125 -0.95137,-1.16674 -1.90525,-2.33433 -2.859375,-3.5 -1.009322,-0.73531 -2.019833,-1.46975 -3.03125,-2.20312 -1.171082,-1.20955 -2.34275,-2.41767 -3.515625,-3.625 -1.092736,-1.56869 -2.1865,-3.13642 -3.28125,-4.70313 -0.847004,-2.14529 -1.695227,-4.29013 -2.544341,-6.4337 -0.352467,-1.98189 -0.706107,-3.97847 -1.06066,-5.96621 0.08935,-2.27609 0.177777,-4.553 0.265165,-6.828 0.501639,-1.03909 1.002735,-2.07813 1.502602,-3.11569 0.905931,-1.05307 1.812961,-2.10759 2.717942,-3.15988 0.817762,-0.56758 1.636184,-1.13532 2.452776,-1.70148 1.155797,-0.42026 2.313829,-0.84069 3.469243,-1.25953 1.163568,-0.001 2.32856,-0.001 3.49134,0 -0.08915,0.0303 -0.17946,0.0579 -0.27069,0.0884 -0.719232,0.20424 -1.420579,0.40411 -2.132369,0.60767 -0.546817,0.27936 -1.092805,0.55879 -1.640708,0.83969 -0.662008,0.60678 -1.322117,1.21191 -1.984675,1.81937 -0.306775,0.79712 -0.613583,1.59275 -0.921875,2.39062 0.06359,1.97073 0.126,3.9365 0.1875,5.90625 0.554068,2.10435 1.106593,4.20763 1.65839,6.31294 0.811492,1.5463 1.621453,3.09259 2.430679,4.64039 1.990218,2.04716 3.978476,4.09433 5.966214,6.14299 2.254919,1.10386 4.508805,2.23817 6.761708,3.35876 0.660843,0.0712 1.320923,0.14353 1.979884,0.2168 -0.0042,-0.0218 -0.0094,-0.0427 -0.01563,-0.0625 -0.326071,-0.14693 -0.676083,-0.30309 -1.015625,-0.45313 -0.635284,-0.73116 -1.269833,-1.45933 -1.90625,-2.1875 -0.571859,-0.98007 -1.144833,-1.95933 -1.71875,-2.9375 -0.399915,-1.08399 -0.801083,-2.16767 -1.203125,-3.25 0.01253,-2.17621 0.02406,-4.35365 0.0346,-6.52897 0.796128,-1.90047 1.59199,-3.8017 2.386485,-5.70105 0.781268,-1.92958 1.562528,-3.86062 2.342292,-5.78944 0.860587,-4.39801 1.679583,-8.80052 2.517875,-13.19929 -0.39473,-4.93721 -0.790667,-9.876 -1.1875,-14.8125 -1.852824,-5.27086 -3.707333,-10.54267 -5.5625,-15.8125 -2.998672,-4.104717 -5.999,-8.209333 -9,-12.3125 -2.004123,-1.766549 -4.009417,-3.53225 -6.015625,-5.296875 0.05309,-0.02183 0.105167,-0.04267 0.15625,-0.0625 1.573082,0.553553 3.21975,1.134417 4.828125,1.703125 2.765636,1.32665 5.53225,2.65525 8.296875,3.984375 2.677675,2.222619 5.355167,4.446917 8.03125,6.671875 2.18321,2.79056 4.365583,5.60317 6.546875,8.40625 1.448988,3.48876 2.896833,6.97817 4.34375,10.46875 0.594835,3.0411 1.1885,6.08233 1.78125,9.125 -0.363676,5.21908 -0.728167,10.4365 -1.09375,15.65625 -0.318781,1.44313 -0.638432,2.88666 -0.959148,4.3315 0.399069,3.77327 0.796496,7.54147 1.193243,11.3137 1.423302,3.29513 2.844937,6.5897 4.265905,9.88605 2.209654,2.7494 4.417666,5.499 6.625,8.25 2.160229,1.76873 4.31927,3.53831 6.477413,5.30896 3.07087,1.54177 6.14106,3.08469 9.21009,4.62854 3.81301,0.66558 7.626,1.33233 11.4375,2 3.3128,-0.18846 6.626,-0.376 9.9375,-0.5625 4.58288,-1.77127 9.16767,-3.54267 13.75,-5.3125 2.83359,-2.56283 5.66767,-5.126 8.5,-7.6875 1.41714,-3.12484 2.83433,-6.251 4.25,-9.375 0.0635,-2.70829 0.126,-5.41767 0.1875,-8.125 -1.27977,-1.62539 -2.5615,-3.251 -3.84375,-4.875 -0.99892,-0.52179 -1.999,-1.04267 -3,-1.5625 -0.48273,-0.12197 -0.9661,-0.24285 -1.45065,-0.36277 -0.1954,0.0121 -0.39122,0.0252 -0.58834,0.0393 z" />
    <ellipse
       style="opacity:1;fill:none;fill-opacity:1;stroke:none;stroke-width:0.5;stroke-miterlimit:4;stroke-dasharray:none;stroke-opacity:1"
       id="path6122"
       cx="152.875"
       cy="156.5625"
       rx="36.125"
       ry="35.6875" />
    <text
       xml:space="preserve"
       style="font-style:normal;font-weight:normal;font-size:40px;line-height:1.25;font-family:sans-serif;letter-spacing:0px;word-spacing:0px;fill:#000000;fill-opacity:1;stroke:none"
       x="230"
       y="210"
       id="text833"><tspan
         sodipodi:role="line"
         id="tspan831"
         x="230"
         y="245.50584" /></text>
  </g>
  <g
     inkscape:groupmode="layer"
     id="layer4"
     inkscape:label="main 1"
     style="display:inline">
    <g
       aria-label="impressionyang"
       style="font-style:normal;font-weight:normal;font-size:16px;line-height:1.25;font-family:sans-serif;letter-spacing:0px;word-spacing:0px;fill:#000000;fill-opacity:1;stroke:none"
       id="text838">
      <g
         id="g883" />
    </g>
  </g>
</svg>
